<svg width="50" height="50" viewBox="0 0 50 50" fill="none" xmlns="http://www.w3.org/2000/svg">
<path d="M50 25C50 38.8071 38.8071 50 25 50C11.1929 50 0 38.8071 0 25C0 11.1929 11.1929 0 25 0C38.8071 0 50 11.1929 50 25Z" fill="url(#paint0_linear_1933_2570)"/>
<path d="M42.4086 21.2402L36.6266 20.2943L41.0412 18.4485L42.0383 14.4653L40.8732 12.3971L35.1789 10.733L38.0778 14.8865H38.0754L38.0926 14.9106L35.8322 15.4752L30.2504 11.6426L25.5135 12.2051L20.7765 11.6426L15.1937 15.4756L12.9339 14.911L12.9512 14.8868H12.9488L15.8477 10.7333L10.1534 12.3975L8.98831 14.4656L9.98533 18.4489L14.4003 20.2943L8.62008 21.2402L7.30073 24.7943L11.2657 26.7104L15.0118 25.3899L15.5502 29.3883L18.0118 35.125L19.2108 38.2379L25.0127 42.3105L25.5062 42.6552V42.6621L25.5097 42.6648L25.5148 42.661L25.52 42.6648L25.5235 42.6621V42.6552L26.017 42.3105L31.8175 38.2366L33.0164 35.1237L35.4781 29.387L36.0165 25.3885L39.7626 26.7091L43.7276 24.7929L42.4086 21.2402ZM10.5458 12.8897L14.421 11.7567L12.3183 14.77L9.75411 14.2967L10.5458 12.8897ZM9.69268 14.8768L11.95 15.2963L10.3625 17.5506L9.69268 14.8768ZM14.9587 24.7915L11.3005 26.08L8.0334 24.4996L9.0494 21.7603L14.9604 20.7952L14.9587 24.7915ZM14.9587 19.8969L10.6793 18.1083L12.5719 15.4197L14.9573 16.0153L14.9587 19.8969ZM25.5135 35.7279L24.0371 34.5153L22.1797 29.601H28.8472L26.9898 34.5167L25.5135 35.7279ZM22.0034 29.0171L20.5059 23.8895H30.521L29.0235 29.0175L22.0034 29.0171ZM20.3237 23.3066L19.7716 21.4573L25.5135 13.1723L31.2543 21.4577L30.7022 23.307L20.3237 23.3066ZM15.5423 19.2258V15.9433L20.9259 12.2465L25.0873 12.7411L25.1149 12.7446L25.1028 12.7563L19.2518 21.1523L15.5423 19.2258ZM18.5523 34.9051L16.1176 29.2305L15.574 25.2131L19.9507 24.0684L21.4733 29.2836L20.2412 31.8567L18.5809 34.9782L18.5523 34.9051ZM18.8584 35.6996L20.5915 32.4413L25.0593 36.1102L24.9095 36.2332L19.629 37.6978L18.8584 35.6996ZM25.5135 41.9513L20.1232 38.1652L25.5135 36.6696L30.9037 38.1652L25.5135 41.9513ZM31.3972 37.6978L26.1171 36.2325L25.9673 36.1095L30.435 32.4406L32.1682 35.699L31.3972 37.6978ZM34.908 29.2305L32.4733 34.9044L32.4446 34.9785L30.7843 31.8567L29.5523 29.2836L31.0749 24.0684L35.4515 25.2131L34.908 29.2305ZM35.4847 19.2258L31.7768 21.1523L25.9241 12.7563L25.9121 12.7446L25.9397 12.7411L30.101 12.2465L35.4847 15.9433V19.2258ZM40.6654 17.5496L39.0779 15.2953L41.3353 14.8775L40.6654 17.5496ZM36.6059 11.7588L40.4811 12.8918L41.2728 14.2967L38.7087 14.771L36.6059 11.7588ZM36.0682 16.0195L38.4536 15.4239L40.3462 18.1125L36.0669 19.9011L36.0682 16.0195ZM39.7264 26.0821L36.0682 24.7936V20.7952L41.9792 21.7603L42.9952 24.4996L39.7264 26.0821Z" fill="url(#paint1_linear_1933_2570)"/>
<defs>
<linearGradient id="paint0_linear_1933_2570" x1="1.14286" y1="32.5" x2="47.8516" y2="15.6738" gradientUnits="userSpaceOnUse">
<stop stop-color="#36373D"/>
<stop offset="0.359375" stop-color="#101015"/>
<stop offset="1" stop-color="#0E0501"/>
</linearGradient>
<linearGradient id="paint1_linear_1933_2570" x1="7.30073" y1="26.6998" x2="43.7262" y2="26.6998" gradientUnits="userSpaceOnUse">
<stop offset="0.442708" stop-color="white"/>
<stop offset="0.505208" stop-color="#8D9ACA"/>
<stop offset="1" stop-color="#FF784A"/>
</linearGradient>
</defs>
</svg>
