<svg xmlns="http://www.w3.org/2000/svg" viewBox="0 0 725.97 637.21">
  <path d="m699.71 209.67-115.24-18.86 88-36.83 19.86-79.48-23.23-41.29L555.65 0l57.76 82.88.34.48-45.09 11.27-111.27-76.49L363 29.38l-94.42-11.24-111.27 76.49-45-11.26.34-.48L170.32 0 56.87 33.21 33.64 74.5 53.51 154l88 36.83-115.25 18.84L0 280.58l79 38.24 74.65-26.35 10.73 79.76 49.1 114.47 23.89 62.12L353 630.1l9.83 6.92v.14l.08.05.1-.07.1.07.07-.05V637l9.82-6.9 115.6-81.28 23.89-62.12 49.07-114.47 10.73-79.76 74.65 26.35 79-38.24ZM64.68 43l77.23-22.61L100 80.56l-51.1-9.47Zm-17 39.65 45 8.33L61 136Zm105 197.84-72.9 25.71-65.21-31.49 20.25-54.66 117.81-19.28Zm0-97.66-85.27-35.7 37.73-53.61 47.54 11.89ZM477.4 214l-11 36.89H259.56l-11-36.89L363 48.68ZM367.54 364.85H293l-29.82-102.32h199.61l-29.85 102.32Zm61.88 11.63-37 98.09L363 498.76l-29.43-24.19-37-98.09h132.85Zm-265.16-207V104l107.29-73.8 82.94 9.87.55.07-.24.23-116.61 167.54Zm60 312.88L175.72 369.1l-10.83-80.16 87.23-22.84 30.35 104.06-24.56 51.35-33.09 62.29Zm6.1 15.85 34.54-65 89 73.21-3 2.46-105.21 29.18ZM363 622.93l-107.44-75.54L363 517.55l107.42 29.84Zm117.29-84.87L375 508.83l-3-2.46 89-73.21 34.54 65Zm70-169-48.57 113.27-.57 1.47-33.09-62.29-24.56-51.35 30.35-104.06 87.23 22.84Zm11.46-199.65-73.93 38.46-116.65-167.5-.24-.23.55-.07 82.94-9.87L561.71 104ZM665 136l-31.69-45 45-8.33ZM584.06 20.43 661.29 43l15.78 28.05L626 80.56Zm-10.72 85 47.54-11.89 37.73 53.61-85.27 35.7Zm72.91 200.79-72.91-25.71v-79.74l117.81 19.28 20.25 54.66Z"/>
</svg>