<?xml version="1.0" encoding="UTF-8" standalone="no"?>
<svg
   viewBox="0 0 593.6957 593.69566"
   version="1.1"
   id="svg4"
   sodipodi:docname="2021-cowProtocol-icon-black (copy).svg"
   width="593.69568"
   height="593.69568"
   inkscape:version="1.1.1 (eb90963e84, 2021-10-02)"
   xmlns:inkscape="http://www.inkscape.org/namespaces/inkscape"
   xmlns:sodipodi="http://sodipodi.sourceforge.net/DTD/sodipodi-0.dtd"
   xmlns="http://www.w3.org/2000/svg"
   xmlns:svg="http://www.w3.org/2000/svg">
  <defs
     id="defs8" />
  <sodipodi:namedview
     id="namedview6"
     pagecolor="#ffffff"
     bordercolor="#666666"
     borderopacity="1.0"
     inkscape:pageshadow="2"
     inkscape:pageopacity="0.0"
     inkscape:pagecheckerboard="0"
     showgrid="false"
     inkscape:snap-object-midpoints="true"
     fit-margin-top="0"
     fit-margin-left="0"
     fit-margin-right="0"
     fit-margin-bottom="0"
     inkscape:zoom="0.59035608"
     inkscape:cx="324.3805"
     inkscape:cy="361.64615"
     inkscape:window-width="1366"
     inkscape:window-height="704"
     inkscape:window-x="0"
     inkscape:window-y="27"
     inkscape:window-maximized="1"
     inkscape:current-layer="svg4" />
  <circle
     style="fill:#ffffff;fill-opacity:1"
     id="path847"
     cx="296.84784"
     cy="296.84784"
     r="296.84784" />
  <path
     d="m 527.73361,223.92118 -79.01431,-12.62585 60.3372,-24.65589 13.61701,-53.20797 -15.92765,-27.64164 -77.78699,-22.232472 39.60314,55.484112 0.23312,0.32134 -30.91595,7.54471 -76.29228,-51.206322 -64.7185,7.524632 -64.73907,-7.524632 -76.29228,51.206322 -30.85425,-7.53802 0.23312,-0.32134 39.54144,-55.490802 -77.786992,22.232472 -15.92765,27.64164 13.62386,53.22136 60.337202,24.65589 -79.021162,12.61246 -18.00517,47.47078 54.166352,25.59981 51.18377,-17.64004 7.35703,53.39543 33.66541,76.63207 16.38018,41.58631 79.28171,54.41298 6.73994,4.63261 v 0.0937 l 0.0548,0.0335 0.0686,-0.0469 0.0686,0.0469 0.048,-0.0335 v -0.10711 l 6.73308,-4.61922 79.26114,-54.41298 16.38018,-41.58631 33.64484,-76.63207 7.35703,-53.39543 51.18377,17.64004 54.16635,-25.59981 z M 92.325288,112.34376 145.27804,97.207468 116.54245,137.48834 81.505738,131.14864 Z m -11.65605,26.54373 30.854252,5.57653 -21.721392,30.13869 z m 71.993252,132.44422 -49.98388,17.21159 -44.711242,-21.08102 13.88442,-36.5922 80.776422,-12.90702 z m 0,-65.3786 -58.465372,-23.89941 25.869572,-35.88927 32.5958,7.95977 z m 222.64427,20.86679 -7.54215,24.69606 H 225.94476 L 218.40261,226.8199 296.8684,116.14624 Z M 299.98125,327.80661 H 248.8729 l -20.44608,-68.49824 h 136.86259 l -20.46665,68.49824 z m 42.42802,7.78572 -25.36905,65.66646 -20.17182,16.19402 -20.17868,-16.19402 -25.36905,-65.66646 z M 160.60232,197.01594 v -43.83566 l 73.56339,-49.4055 56.86781,6.60748 0.37711,0.0469 -0.16456,0.15397 -79.95365,112.15985 z m 41.139,209.45787 -33.28145,-75.82203 -7.42559,-53.66321 59.80925,-15.29026 20.80948,69.66308 -16.83957,34.37632 -22.68816,41.70011 z m 4.18246,10.6108 23.68236,-43.51432 61.02284,49.01052 -2.05695,1.64685 -72.13723,19.53458 z m 90.94462,83.49395 -73.66624,-50.57034 73.66624,-19.97642 73.65252,19.97642 z m 80.41989,-56.81632 -72.19209,-19.56806 -2.05695,-1.64685 61.02285,-49.01051 23.68235,43.51432 z m 47.9955,-113.13724 -33.30202,75.82873 -0.39082,0.98409 -22.68816,-41.70011 -16.83957,-34.37632 20.80948,-69.66308 59.80925,15.29026 z m 7.85755,-133.65592 -50.69011,25.74709 -79.98107,-112.13307 -0.16456,-0.15397 0.37711,-0.0469 56.86781,-6.60748 73.56339,49.4055 z m 70.79336,-22.36637 -21.72825,-30.1253 30.85425,-5.57653 z m -55.49651,-77.368472 52.95275,15.109522 10.81955,18.7781 -35.01614,6.36648 z m -7.35017,56.903352 32.5958,-7.95977 25.86957,35.88927 -58.46537,23.89941 z m 49.99074,134.4191 -49.99074,-17.21159 v -53.38204 l 80.77642,12.90702 13.88442,36.5922 z"
     id="path2"
     style="stroke-width:0.677502" />
</svg>
