<svg width="15" height="15" viewBox="0 0 15 15" fill="none" xmlns="http://www.w3.org/2000/svg">
<path d="M13.853 12.438L10.249 8.834C10.174 8.759 10.083 8.707 9.982 8.678C10.621 7.781 11 6.686 11 5.5C11 2.463 8.537 0 5.5 0C2.463 0 0 2.463 0 5.5C0 8.537 2.463 11 5.5 11C6.686 11 7.781 10.621 8.68 9.982C8.708 10.083 8.76 10.173 8.835 10.249L12.439 13.853C12.74 14.154 13.297 14.08 13.688 13.688C14.079 13.297 14.153 12.739 13.853 12.438ZM5.5 9C3.568 9 2 7.432 2 5.5C2 3.568 3.568 2 5.5 2C7.432 2 9 3.568 9 5.5C9 7.432 7.432 9 5.5 9Z" fill="none"/>
</svg>
