<svg width="50px" height="50px" viewBox="0 0 50 50" version="1.1" xmlns="http://www.w3.org/2000/svg" xmlns:xlink="http://www.w3.org/1999/xlink">
<path d="M49.343 44.301L36.506 31.464a2.184 2.184 0 00-.95-.555 19.436 19.436 0 003.625-11.32C39.181 8.774 30.408 0 19.591 0 8.773 0 0 8.773 0 19.59s8.773 19.59 19.59 19.59c4.225 0 8.125-1.35 11.328-3.627.1.36.284.68.552.951l12.837 12.837c1.072 1.072 3.056.808 4.449-.588 1.392-1.392 1.656-3.38.587-4.452zM20 32c-6.624 0-12-5.376-12-12S13.376 8 20 8s12 5.376 12 12-5.376 12-12 12z" fill="none"></path>
</svg>