<?xml version="1.0" encoding="UTF-8"?>
<svg width="50px" height="50px" viewBox="0 0 50 50" version="1.1" xmlns="http://www.w3.org/2000/svg" xmlns:xlink="http://www.w3.org/1999/xlink">
    <g stroke="none" stroke-width="1" fill="none" fill-rule="evenodd">
        <g fill-rule="nonzero">
            <path d="M49.3434001,44.3009734 L36.5062086,31.4644476 C36.2390639,31.1973168 35.9149284,31.0121061 35.5551736,30.9088155 C37.8312461,27.713931 39.1812171,23.8138212 39.1812171,19.5895927 C39.1812171,8.77257578 30.4081864,0 19.5906086,0 C8.7730307,0 0,8.77257578 0,19.5895927 C0,30.4066096 8.7730307,39.1791854 19.5906086,39.1791854 C23.8150561,39.1791854 27.7153682,37.8292843 30.9175422,35.5533298 C31.0172762,35.913066 31.2024965,36.233623 31.4696412,36.5043155 L44.3068327,49.3408413 C45.3789733,50.4129263 47.3629676,50.1493573 48.7556818,48.7531536 C50.148396,47.3605116 50.4119787,45.3730584 49.3434001,44.3009734 Z M20,32 C13.376,32 8,26.624 8,20 C8,13.376 13.376,8 20,8 C26.624,8 32,13.376 32,20 C32,26.624 26.624,32 20,32 Z" id="Shape"></path>
        </g>
    </g>
</svg>