<svg width="50" height="50" viewBox="0 0 50 50" fill="none" xmlns="http://www.w3.org/2000/svg">
<circle cx="25" cy="25" r="25" fill="#B7B7B7"/>
<path d="M25 24.7656C28.5156 24.7656 31.3281 21.9531 31.3281 18.4375C31.3281 14.9219 28.5156 12.1094 25 12.1094C21.4844 12.1094 18.6719 14.9219 18.6719 18.4375C18.6719 21.9531 21.4844 24.7656 25 24.7656ZM25 14.4531C27.2266 14.4531 28.9844 16.2109 28.9844 18.4375C28.9844 20.6641 27.2266 22.4219 25 22.4219C22.7734 22.4219 21.0156 20.6641 21.0156 18.4375C21.0156 16.2109 22.7734 14.4531 25 14.4531Z" fill="black"/>
<path d="M27.5781 26.6406H22.4219C16.6797 26.6406 12.1094 31.3281 12.1094 36.9531C12.1094 37.6563 12.5781 38.125 13.2812 38.125C13.9844 38.125 14.4531 37.6563 14.4531 36.9531C14.4531 32.5 18.0859 28.9844 22.4219 28.9844H27.5781C32.0313 28.9844 35.5469 32.6172 35.5469 36.9531C35.5469 37.6563 36.0156 38.125 36.7188 38.125C37.4219 38.125 37.8906 37.6563 37.8906 36.9531C37.8906 31.3281 33.2031 26.6406 27.5781 26.6406Z" fill="black"/>
</svg>
